<svg viewBox="0 0 64 64" xmlns="http://www.w3.org/2000/svg"><g data-name="Fill Outline" id="Fill_Outline"><g data-name="Stroke copy" id="Stroke_copy"><g><ellipse cx="32" cy="27.5" rx="20" ry="24.5" style="fill: #57b7eb"/><g><path d="M43,29a9,9,0,0,0,8.6-6.361,27.164,27.164,0,0,0-3.9-10.3A9,9,0,1,0,43,29Z" style="fill: #4891d3"/><path d="M40,45c-8.4,0-15.591-6.351-18.551-15.346a8.99,8.99,0,0,0-.289-17.382,26.215,26.215,0,0,1,3.6-7.608C17.293,8.219,12,17.1,12,27.5,12,41.031,20.954,52,32,52c6.119,0,11.592-3.37,15.261-8.672A16.774,16.774,0,0,1,40,45Z" style="fill: #4891d3"/></g><path d="M32,29A18.985,18.985,0,0,0,14.792,39.984C18.277,47.176,24.677,52,32,52s13.723-4.824,17.208-12.016A18.985,18.985,0,0,0,32,29Z" style="fill: #c4f236"/><path d="M40,45c-7.741,0-14.442-5.4-17.766-13.278a19.11,19.11,0,0,0-7.442,8.262C18.277,47.176,24.677,52,32,52c6.113,0,11.576-3.369,15.244-8.664A16.768,16.768,0,0,1,40,45Z" style="fill: #a1d51c"/><g><rect height="6" style="fill: #7ab92d" transform="translate(64.187 80.872) rotate(150)" width="6" x="18.259" y="46.036"/><rect height="12" style="fill: #c4f236" transform="translate(51.893 93.167) rotate(150)" width="4" x="11.464" y="47.536"/><path d="M8,49.536h2a2,2,0,0,1,2,2v8a2,2,0,0,1-2,2H8a0,0,0,0,1,0,0v-12a0,0,0,0,1,0,0Z" style="fill: #c4f236" transform="translate(46.429 98.631) rotate(150)"/><polygon points="20.161 53.134 18.196 57.732 12.196 47.339 17.161 47.937 20.161 53.134" style="fill: #c4f236"/><path d="M15.988,53.907,18.2,57.732l-3.464,2-2.247-3.893A6.979,6.979,0,0,0,15.988,53.907Z" style="fill: #a1d51c"/><path d="M12.485,55.839l2.247,3.893-1.732,1A2,2,0,0,1,10.268,60l-2.9-5.025A6.951,6.951,0,0,0,11,56,7.052,7.052,0,0,0,12.485,55.839Z" style="fill: #a1d51c"/><path d="M17.982,49.36l2.179,3.774-1.965,4.6-2.208-3.825A6.97,6.97,0,0,0,17.982,49.36Z" style="fill: #a1d51c"/></g><g><rect height="6" style="fill: #7ab92d" transform="translate(30.244 -14.801) rotate(30)" width="6" x="39.741" y="46.036"/><rect height="12" style="fill: #c4f236" transform="translate(33.538 -18.095) rotate(30)" width="4" x="48.536" y="47.536"/><path d="M52,49.536h2a2,2,0,0,1,2,2v8a2,2,0,0,1-2,2H52a0,0,0,0,1,0,0v-12A0,0,0,0,1,52,49.536Z" style="fill: #c4f236" transform="translate(35.002 -19.559) rotate(30)"/><polygon points="43.839 53.134 45.804 57.732 51.804 47.339 46.839 47.937 43.839 53.134" style="fill: #c4f236"/><path d="M48.012,53.907,45.8,57.732l3.464,2,2.247-3.893A6.979,6.979,0,0,1,48.012,53.907Z" style="fill: #a1d51c"/><path d="M51.515,55.839l-2.247,3.893,1.732,1A2,2,0,0,0,53.732,60l2.9-5.025A6.951,6.951,0,0,1,53,56,7.052,7.052,0,0,1,51.515,55.839Z" style="fill: #a1d51c"/><path d="M46.018,49.36l-2.179,3.774,1.965,4.6,2.208-3.825A6.97,6.97,0,0,1,46.018,49.36Z" style="fill: #a1d51c"/></g><circle cx="32" cy="44" r="11" style="fill: #84d2f4"/><circle cx="45" cy="19" r="9" style="fill: #84d2f4"/><circle cx="19" cy="19" r="9" style="fill: #84d2f4"/><path d="M24,25a8.995,8.995,0,0,1-6.875-14.8,9,9,0,1,0,8.75,14.6A8.982,8.982,0,0,1,24,25Z" style="fill: #57b7eb"/><path d="M50,25a8.995,8.995,0,0,1-6.875-14.8,9,9,0,1,0,8.75,14.6A8.982,8.982,0,0,1,50,25Z" style="fill: #57b7eb"/><circle cx="19" cy="19" r="5" style="fill: #4891d3"/><path d="M19,14a5,5,0,1,0,5,5A5,5,0,0,0,19,14Zm2,8a5,5,0,0,1-5-5,4.947,4.947,0,0,1,.313-1.687A4.947,4.947,0,0,1,18,15a5,5,0,0,1,5,5,4.947,4.947,0,0,1-.313,1.687A4.947,4.947,0,0,1,21,22Z" style="fill: #2d72bc"/><circle cx="45" cy="19" r="5" style="fill: #4891d3"/><path d="M45,14a5,5,0,1,0,5,5A5,5,0,0,0,45,14Zm2,8a5,5,0,0,1-5-5,4.947,4.947,0,0,1,.313-1.687A4.947,4.947,0,0,1,44,15a5,5,0,0,1,5,5,4.947,4.947,0,0,1-.313,1.687A4.947,4.947,0,0,1,47,22Z" style="fill: #2d72bc"/><path d="M36,51a10.986,10.986,0,0,1-9.51-16.51A10.993,10.993,0,1,0,41.51,49.51,10.93,10.93,0,0,1,36,51Z" style="fill: #57b7eb"/><circle cx="32" cy="44" r="7" style="fill: #4891d3"/><path d="M32,37a7,7,0,1,0,7,7A7,7,0,0,0,32,37Zm4.766,10.766a6.974,6.974,0,0,1-8.532-8.532,6.974,6.974,0,0,1,8.532,8.532Z" style="fill: #2d72bc"/></g></g><g data-name="Outline copy" id="Outline_copy"><g><path d="M22.508,7.146A16.4,16.4,0,0,1,31,4.041V8a1,1,0,0,0,2,0V4.06A16.881,16.881,0,0,1,43.783,9.082a10.016,10.016,0,1,0,2.78.053A19.106,19.106,0,0,0,32,2,18.258,18.258,0,0,0,21.344,5.52a1,1,0,1,0,1.164,1.626ZM53,19a8,8,0,1,1-8-8A8.009,8.009,0,0,1,53,19Z" style="fill: #323232"/><path d="M58.9,51.3a2.979,2.979,0,0,0-1.4-1.822l-5.2-3a1,1,0,0,0-.62-.126l-4.632.558-.951-.549A27.463,27.463,0,0,0,52.9,30.074,1,1,0,0,0,51.979,29a.99.99,0,0,0-1.079.915A27.636,27.636,0,0,1,49.1,37.7a19.942,19.942,0,0,0-32.59-2.323,1,1,0,1,0,1.55,1.263,17.951,17.951,0,0,1,30.018,3.343,22.909,22.909,0,0,1-3.754,5.354l-.4-.231c.034-.366.073-.73.073-1.1a12,12,0,0,0-24,0c0,.375.022.745.056,1.111l-.4.23A25.974,25.974,0,0,1,13,27.5c0-.167.009-.341.012-.51a10,10,0,1,0,.671-16.449,1,1,0,1,0,1.065,1.692,8.021,8.021,0,1,1-2.515,2.515,1,1,0,1,0-1.692-1.065A9.939,9.939,0,0,0,11.1,25.109c-.062.808-.1,1.612-.1,2.391a28.107,28.107,0,0,0,6.875,18.87l-.926.535-4.633-.558a.986.986,0,0,0-.62.126l-5.2,3a3,3,0,0,0-1.1,4.1l4,6.929a3,3,0,0,0,4.1,1.1l5.2-3a1,1,0,0,0,.42-.473l1.833-4.292L23.44,52.4a11.836,11.836,0,0,0,10.54,3.429,1,1,0,1,0-.328-1.972,10.006,10.006,0,1,1,3.415-1.243,1,1,0,0,0,1.016,1.723,12.023,12.023,0,0,0,2.473-1.939l2.5,1.44,1.833,4.292a1,1,0,0,0,.42.473l5.2,3a3,3,0,0,0,4.1-1.1l4-6.928A2.987,2.987,0,0,0,58.9,51.3ZM16.83,57.366l-1.731,1-5-8.661,1.731-1Zm-2.768-8.8,2.482.3,1.25,2.165,1.25,2.165-.982,2.3ZM11.134,59.5l-4-6.929A1,1,0,0,1,7.5,51.206l.866-.5,5,8.66-.866.5A1,1,0,0,1,11.134,59.5Zm11.013-8.668-1.62.936-1-1.732-1-1.732L20.445,47.2A11.974,11.974,0,0,0,22.147,50.832Zm24.059.2,1.25-2.165,2.481-.3-4,6.927-.982-2.3Zm5.964-2.331,1.732,1-5,8.661-1.732-1ZM43.553,47.2,45.474,48.3l-1,1.732-1,1.732-1.644-.949A12.06,12.06,0,0,0,43.553,47.2Zm13.312,5.376-4,6.929a1,1,0,0,1-1.365.366l-.866-.5,5-8.661.866.5a1,1,0,0,1,.365,1.366Z" style="fill: #323232"/><path d="M40,44a8,8,0,1,0-8,8A8.009,8.009,0,0,0,40,44ZM26,44a5.976,5.976,0,0,1,.35-2H31v4H26.35A5.976,5.976,0,0,1,26,44Zm7-2h4.65a5.889,5.889,0,0,1,0,4H33Zm3.46-2H33V38.09A6,6,0,0,1,36.46,40ZM31,38.09V40H27.54A6,6,0,0,1,31,38.09ZM27.54,48H31v1.91A6,6,0,0,1,27.54,48ZM33,49.91V48h3.46A6,6,0,0,1,33,49.91Z" style="fill: #323232"/><path d="M19,15a3.994,3.994,0,0,1,1.454.284,1,1,0,1,0,.729-1.862A6,6,0,1,0,19,25a5.869,5.869,0,0,0,6-6,5.954,5.954,0,0,0-.423-2.184,1,1,0,0,0-1.861.731A3.985,3.985,0,0,1,23,19a3.869,3.869,0,0,1-4,4,4,4,0,0,1,0-8Z" style="fill: #323232"/><path d="M32,12a1,1,0,0,0-1,1v4a1,1,0,0,0,2,0V13A1,1,0,0,0,32,12Z" style="fill: #323232"/><path d="M39,19a6.006,6.006,0,0,0,6,6,5.868,5.868,0,0,0,6-6,5.974,5.974,0,0,0-.423-2.184,1,1,0,1,0-1.861.731A3.985,3.985,0,0,1,49,19a3.869,3.869,0,0,1-4,4,4,4,0,1,1,1.453-7.716,1,1,0,0,0,.731-1.862A5.978,5.978,0,0,0,39,19Z" style="fill: #323232"/></g></g></g></svg>