<svg viewBox="0 0 64 64" xmlns="http://www.w3.org/2000/svg"><title/><g data-name="Layer 31" id="Layer_31"><path d="M45,34.107V14.367A13.241,13.241,0,0,0,32.628,1.015,13,13,0,0,0,19,14V34.107a4.02,4.02,0,0,1-2.452,3.76A11.986,11.986,0,0,0,9,49V63H55V49a11.986,11.986,0,0,0-7.548-11.133A4.02,4.02,0,0,1,45,34.107Z" style="fill:#e6e6e6"/><path d="M41,25H36.828a2,2,0,0,1-1.414-.586l-2-2a2,2,0,0,0-2.828,0l-2,2A2,2,0,0,1,27.172,25H23a4,4,0,0,1-4-4V19a4,4,0,0,1,4-4H41a4,4,0,0,1,4,4v2A4,4,0,0,1,41,25Z" style="fill:#cecece"/><path d="M32,37s-9-4.029-9-9V18a9,9,0,0,1,9-9h0a9,9,0,0,1,9,9V28C41,32.971,32,37,32,37Z" style="fill:#ffd3b6"/><path d="M32,9a9,9,0,0,0-9,9v2a9,9,0,0,1,18,0V18A9,9,0,0,0,32,9Z" style="fill:#f9b995"/><path d="M40.477,15H23.523A8.956,8.956,0,0,0,23,18v7h4.172a2,2,0,0,0,1.414-.586l2-2a2,2,0,0,1,2.828,0l2,2A2,2,0,0,0,36.828,25H41V18A8.956,8.956,0,0,0,40.477,15Z" style="fill:#f9b995"/><path d="M41,23H36.828a2,2,0,0,1-1.414-.586l-2-2a2,2,0,0,0-2.828,0l-2,2A2,2,0,0,1,27.172,23H23a4,4,0,0,1-4-4V17a4,4,0,0,1,4-4H41a4,4,0,0,1,4,4v2A4,4,0,0,1,41,23Z" style="fill:#98deea"/><path d="M22,19V17a4,4,0,0,1,4-4H23a4,4,0,0,0-4,4v2a4,4,0,0,0,4,4h3A4,4,0,0,1,22,19Z" style="fill:#82d0d8"/><path d="M41,27v1c0,4.97-9,9-9,9s-9-4.03-9-9V27A21.226,21.226,0,0,1,41,27Z" style="fill:#98deea"/><path d="M36.963,33.984a3.993,3.993,0,0,1-3.949-.013C30.363,32.465,26,29.46,26,26v-.106A24.563,24.563,0,0,0,23,27v1c0,4.97,9,9,9,9a28.426,28.426,0,0,0,5.1-3.1Z" style="fill:#82d0d8"/><path d="M37,60a4,4,0,0,1-4-4V36.5c-.61.33-1,.5-1,.5l-1.219.812A4,4,0,0,0,29,41.141V60H26.824a14.828,14.828,0,0,1-13.959-9.381,12.192,12.192,0,0,1,1.275-11.45A11.958,11.958,0,0,0,9,49V63H55V60Z" style="fill:#cecece"/><path d="M47.823,36.938A3.027,3.027,0,0,1,46,34.107V14.367a14.667,14.667,0,0,0-1.7-6.835,1,1,0,0,0-1.768.936,12.643,12.643,0,0,1,1.38,4.486A4.956,4.956,0,0,0,41,12H39.977c-.16-.213-.318-.426-.493-.624l.963-.481a1,1,0,1,0-.894-1.79L37.9,9.934a9.836,9.836,0,0,0-1.51-.906l1.321-1.321a1,1,0,1,0-1.414-1.414L34.309,8.277A9.842,9.842,0,0,0,33,8.062V5a1,1,0,0,0-2,0V8.062a9.842,9.842,0,0,0-1.309.215L27.707,6.293a1,1,0,0,0-1.414,1.415l1.321,1.32a9.836,9.836,0,0,0-1.51.906l-1.657-.829a1,1,0,1,0-.894,1.79l.963.481c-.175.2-.333.411-.493.624H23a4.952,4.952,0,0,0-2.949.984A11.985,11.985,0,0,1,32.582,2.014a11.714,11.714,0,0,1,7.952,3.675,1,1,0,0,0,1.449-1.378A13.705,13.705,0,0,0,32.676.016,14,14,0,0,0,18,14V29a1,1,0,0,0,2,0V22.974a4.954,4.954,0,0,0,2,.925v3.12h0V28c0,3.288,3.194,6.076,5.875,7.836a1,1,0,0,0,1.1-1.672C25.766,32.058,24,29.869,24,28v-.334a20.244,20.244,0,0,1,16,0V28c0,3.539-6.07,7.038-8.409,8.088a.983.983,0,0,0-.146.08l-1.218.812A4.99,4.99,0,0,0,28,41.141V62H10V49a10.938,10.938,0,0,1,6.919-10.2A5.044,5.044,0,0,0,20,34.107V33a1,1,0,0,0-2,0v1.107a3.027,3.027,0,0,1-1.823,2.831A12.93,12.93,0,0,0,8,49V63a1,1,0,0,0,1,1H55a1,1,0,0,0,1-1V49A12.93,12.93,0,0,0,47.823,36.938ZM32,10a7.983,7.983,0,0,1,5.285,2H26.715A7.983,7.983,0,0,1,32,10ZM20,19V17a3,3,0,0,1,3-3H41a3,3,0,0,1,3,3v2a3,3,0,0,1-3,3H36.828a1.009,1.009,0,0,1-.707-.293l-2-2a3,3,0,0,0-4.242,0l-2,2a1.009,1.009,0,0,1-.707.293H23A3,3,0,0,1,20,19Zm4,6.513V24h3.172a2.978,2.978,0,0,0,2.121-.879l2-2a1,1,0,0,1,1.414,0l2,2A2.978,2.978,0,0,0,36.828,24H40v1.513A22.022,22.022,0,0,0,24,25.513ZM54,62H34V41.211a3.038,3.038,0,0,1,.141-.91,1,1,0,0,0-1.907-.6A5.019,5.019,0,0,0,32,41.211V62H30V41.141a2.992,2.992,0,0,1,1.336-2.5l1.151-.768C33.47,37.426,42,33.349,42,28v-.981h0V23.9a4.954,4.954,0,0,0,2-.925V34.107A5.044,5.044,0,0,0,47.081,38.8,10.938,10.938,0,0,1,54,49Z"/><path d="M41,16H39a1,1,0,0,1,0-2h2a1,1,0,0,1,0,2Z" style="fill:#fff"/></g></svg>